<svg xmlns="http://www.w3.org/2000/svg" viewBox="0 0 1920 1080" preserveAspectRatio="xMidYMid slice">
  <defs>
    <linearGradient id="base" x1="0" y1="0" x2="1" y2="1">
      <stop offset="0%" stop-color="#080808"/>
      <stop offset="50%" stop-color="#101010"/>
      <stop offset="100%" stop-color="#14110a"/>
    </linearGradient>
    <radialGradient id="gold" cx="20%" cy="25%" r="55%">
      <stop offset="0%" stop-color="#f5c518" stop-opacity="0.18"/>
      <stop offset="100%" stop-color="#f5c518" stop-opacity="0"/>
    </radialGradient>
    <radialGradient id="silver" cx="85%" cy="75%" r="45%">
      <stop offset="0%" stop-color="#b8b8b8" stop-opacity="0.1"/>
      <stop offset="100%" stop-color="#b8b8b8" stop-opacity="0"/>
    </radialGradient>
  </defs>
  <rect width="1920" height="1080" fill="url(#base)"/>
  <rect width="1920" height="1080" fill="url(#gold)"/>
  <rect width="1920" height="1080" fill="url(#silver)"/>
  <g opacity="0.04" stroke="#f5f5f5" stroke-width="1">
    <path d="M0 180H1920M0 360H1920M0 540H1920M0 720H1920M0 900H1920"/>
    <path d="M240 0V1080M480 0V1080M720 0V1080M960 0V1080M1200 0V1080M1440 0V1080M1680 0V1080"/>
  </g>
  <g fill="none" stroke="#f5c518" stroke-width="1.5" opacity="0.12">
    <path d="M120 700 Q420 520 720 640 T1320 580 T1800 720"/>
    <path d="M80 780 Q380 600 680 720 T1280 660 T1840 800"/>
  </g>
</svg>
